<svg width="60" height="60" viewBox="0 0 60 60" fill="none" xmlns="http://www.w3.org/2000/svg">
<g clip-path="url(#clip0)">
<path d="M57.2648 37.4617L58.9814 35.7455C60.0618 34.6647 60.0618 32.9065 58.9814 31.8257C58.4577 31.3025 57.7619 31.0141 57.0213 31.0141C56.4656 31.0141 55.9346 31.1766 55.4832 31.4792L55.1216 30.2652L56.9796 28.4066C58.0604 27.3259 58.0604 25.5676 56.9796 24.4873C55.9849 23.4921 54.4166 23.4156 53.3303 24.2529L51.1285 16.8609C52.0079 16.014 52.8501 15.1901 53.6439 14.3963C55.9313 12.1084 57.7912 9.68729 58.8812 7.57791C60.7228 4.01284 59.9519 2.10717 58.981 1.13625C58.0105 0.16533 56.1048 -0.605088 52.5393 1.2365C50.4304 2.32598 48.0088 4.18587 45.7214 6.47378C44.9276 7.26754 44.1032 8.10937 43.2568 8.98874L35.8643 6.78689C36.7016 5.70107 36.6251 4.13277 35.6304 3.13759C34.5496 2.05727 32.7914 2.05681 31.711 3.13759L29.8525 4.99612L28.6381 4.63448C28.9407 4.18267 29.1032 3.65166 29.1032 3.09594C29.1032 2.35573 28.8148 1.65947 28.2915 1.13625C27.2112 0.0554661 25.4525 0.0554661 24.3722 1.13625L22.656 2.85241L13.9086 0.246812C13.5969 0.154343 13.2599 0.239488 13.0306 0.469285L10.7789 2.72103C10.4007 3.09868 10.4506 3.74459 10.8819 4.05999L32.9525 20.215C27.9761 25.8258 23.1824 31.4435 19.7982 35.4571L13.3062 32.96C12.9798 32.8346 12.6104 32.9129 12.3632 33.1601L9.69441 35.8288C9.34926 36.1744 9.34926 36.7343 9.69441 37.0794L23.0378 50.4228C23.3784 50.7639 23.9478 50.7639 24.2889 50.4228L26.9572 47.7545C27.2044 47.5073 27.2831 47.1374 27.1572 46.8111L24.6606 40.3195C28.6742 36.9353 34.2915 32.1415 39.9027 27.1647L41.656 29.5607C41.9673 29.9859 42.5985 30.0409 42.9803 29.6783C43.2984 29.3762 43.3424 28.8694 43.0837 28.516L41.2302 25.9837C44.1645 23.3648 47.0622 20.7226 49.6911 18.2328L58.0247 46.2091L56.8753 47.3581L45.4215 31.7099C45.1331 31.3157 44.5797 31.2301 44.1856 31.5185C43.791 31.8074 43.7054 32.3608 43.9942 32.7549L56.0577 49.2358C56.3731 49.6671 57.019 49.7169 57.3967 49.3388L59.6484 47.0871C59.8782 46.8578 59.9633 46.5204 59.8709 46.2091L57.2648 37.4617ZM32.9621 4.38866C33.3485 4.00231 33.9935 4.00231 34.3798 4.38866C34.7707 4.77959 34.7707 5.41543 34.3798 5.80636L33.9651 6.22109L31.7802 5.57015L32.9621 4.38866ZM25.6232 2.38732C26.0137 1.99639 26.65 1.99639 27.0409 2.38732C27.4319 2.77825 27.4319 3.41408 27.0409 3.80501L26.7681 4.07738L24.5837 3.4269L25.6232 2.38732ZM12.7591 3.24196L13.9086 2.09298L41.8849 10.4261C39.3951 13.0555 36.7529 15.9532 34.1335 18.8874L12.7591 3.24196ZM13.2078 34.8176L18.5933 36.889C17.2425 38.4976 16.2066 39.7423 15.5955 40.4788L11.5708 36.4541L13.2078 34.8176ZM16.852 41.7354C19.9355 38.0151 36.2342 18.4626 46.9724 7.72439C49.1029 5.5935 51.4283 3.80181 53.3514 2.80846C54.7952 2.06231 56.7269 1.3839 57.7304 2.38732C58.7338 3.39074 58.0549 5.3225 57.3092 6.76629C56.3159 8.68936 54.5237 11.0143 52.3928 13.1452C41.6555 23.8826 22.1026 40.1817 18.3823 43.2657L16.852 41.7354ZM25.3001 46.9099L23.6635 48.5464L19.6389 44.5218C20.375 43.9111 21.6201 42.8752 23.2287 41.5243L25.3001 46.9099ZM56.3127 33.0768C56.7036 32.6858 57.3394 32.6858 57.7304 33.0768C58.1213 33.4677 58.1213 34.1035 57.7304 34.4945L56.6908 35.534L56.0398 33.3496L56.3127 33.0768ZM54.3113 25.7379C54.7018 25.3469 55.3381 25.3474 55.729 25.7379C56.1154 26.1242 56.1154 26.7692 55.729 27.1556L54.5471 28.3375L53.8961 26.1526L54.3113 25.7379Z" fill="#F6FBF9"/>
<path d="M53.0951 51.0592L45.547 58.6073C45.2252 58.9295 45.2037 59.4614 45.4999 59.8075C45.8309 60.1939 46.4383 60.2181 46.7981 59.8583L54.3462 52.3102C54.6918 51.9646 54.6918 51.4048 54.3462 51.0592C54.001 50.714 53.4407 50.714 53.0951 51.0592V51.0592Z" fill="#F6FBF9"/>
<path d="M50.572 48.5357C50.9176 48.1905 50.9176 47.6302 50.572 47.2851C50.2269 46.9395 49.6666 46.9395 49.3214 47.2851L44.6037 52.0024C44.2819 52.3246 44.2604 52.8565 44.5565 53.2026C44.8875 53.589 45.495 53.6132 45.8548 53.2534L50.572 48.5357Z" fill="#F6FBF9"/>
<path d="M47.7429 43.8189C48.0885 43.4733 48.0885 42.913 47.7429 42.5678C47.3973 42.2222 46.8375 42.2222 46.4919 42.5678L43.1896 45.8701C42.8678 46.1919 42.8462 46.7243 43.1429 47.0704C43.4734 47.4567 44.0808 47.481 44.4406 47.1212L47.7429 43.8189Z" fill="#F6FBF9"/>
<path d="M9.0564 6.24178C8.71079 5.89662 8.15049 5.89662 7.80533 6.24178L0.257256 13.7903C-0.0883561 14.1355 -0.0883561 14.6958 0.257256 15.0409C0.597833 15.3815 1.16729 15.3815 1.50833 15.0409L9.0564 7.49285C9.40156 7.14723 9.40156 6.58739 9.0564 6.24178Z" fill="#F6FBF9"/>
<path d="M12.8319 10.0165C12.4863 9.67092 11.9265 9.67092 11.5813 10.0165L6.86362 14.7343C6.54135 15.0561 6.52029 15.588 6.81647 15.9341C7.14743 16.3204 7.75443 16.3447 8.11423 15.9849L12.8319 11.2676C13.1776 10.922 13.1776 10.3617 12.8319 10.0165Z" fill="#F6FBF9"/>
<path d="M12.9971 17.4001C13.3382 17.7407 13.9072 17.7407 14.2482 17.4001L17.5505 14.0978C17.8957 13.7522 17.8957 13.1924 17.5505 12.8468C17.2049 12.5016 16.6451 12.5016 16.2995 12.8468L12.9971 16.1491C12.652 16.4947 12.652 17.0545 12.9971 17.4001Z" fill="#F6FBF9"/>
</g>
<defs>
<clipPath id="clip0">
<rect width="60" height="60" fill="white"/>
</clipPath>
</defs>
</svg>
