<svg width="22" height="22" viewBox="0 0 22 22" fill="none" xmlns="http://www.w3.org/2000/svg">
<g clip-path="url(#clip0)">
<path d="M20.9964 13.7359L21.6258 13.1066C22.0219 12.7103 22.0219 12.0656 21.6258 11.6694C21.4338 11.4775 21.1787 11.3718 20.9071 11.3718C20.7033 11.3718 20.5086 11.4314 20.3431 11.5423L20.2105 11.0972L20.8918 10.4157C21.2881 10.0194 21.2881 9.37472 20.8918 8.9786C20.5271 8.6137 19.952 8.58567 19.5537 8.89266L18.7464 6.18227C19.0688 5.87176 19.3777 5.56963 19.6687 5.27858C20.5074 4.43969 21.1894 3.55194 21.5891 2.77851C22.2643 1.47131 21.9816 0.772566 21.6256 0.416563C21.2698 0.0605598 20.5711 -0.221927 19.2637 0.453322C18.4904 0.852797 17.6025 1.53476 16.7638 2.37366C16.4727 2.6647 16.1704 2.97338 15.8601 3.29581L13.1495 2.48847C13.4565 2.09033 13.4285 1.51529 13.0638 1.15039C12.6675 0.754271 12.0228 0.754103 11.6267 1.15039L10.9452 1.83185L10.4999 1.69925C10.6109 1.53358 10.6704 1.33888 10.6704 1.13512C10.6704 0.863707 10.5647 0.608412 10.3728 0.416563C9.97673 0.0202765 9.33186 0.0202765 8.93574 0.416563L8.30649 1.04582L5.0991 0.0904366C4.9848 0.0565315 4.86126 0.0877511 4.77717 0.17201L3.95153 0.997649C3.81289 1.13612 3.83118 1.37295 3.9893 1.4886L12.0819 7.41209C10.2572 9.46939 8.49951 11.5292 7.25862 13.0009L4.87821 12.0853C4.75854 12.0393 4.62309 12.068 4.53245 12.1586L3.5539 13.1372C3.42735 13.2639 3.42735 13.4692 3.5539 13.5957L8.44647 18.4883C8.57135 18.6134 8.78015 18.6134 8.9052 18.4883L9.88358 17.5099C9.97421 17.4193 10.0031 17.2837 9.95693 17.164L9.04149 14.7838C10.5132 13.5429 12.5728 11.7852 14.6303 9.96034L15.2731 10.8389C15.3873 10.9948 15.6187 11.0149 15.7587 10.882C15.8754 10.7712 15.8915 10.5854 15.7967 10.4558L15.117 9.52729C16.1929 8.56704 17.2554 7.59823 18.2194 6.68531L21.275 16.9433L20.8535 17.3646L16.6538 11.6269C16.5481 11.4824 16.3452 11.451 16.2007 11.5567C16.056 11.6626 16.0246 11.8656 16.1305 12.0101L20.5538 18.0531C20.6694 18.2112 20.9062 18.2295 21.0447 18.0908L21.8704 17.2652C21.9546 17.1811 21.9858 17.0574 21.9519 16.9433L20.9964 13.7359ZM12.0854 1.60912C12.2271 1.46745 12.4636 1.46745 12.6052 1.60912C12.7486 1.75246 12.7486 1.9856 12.6052 2.12894L12.4531 2.28101L11.652 2.04233L12.0854 1.60912ZM9.39447 0.875289C9.53764 0.731948 9.77095 0.731948 9.91429 0.875289C10.0576 1.01863 10.0576 1.25177 9.91429 1.39511L9.81426 1.49498L9.01329 1.25647L9.39447 0.875289ZM4.67764 1.18866L5.0991 0.767363L15.3571 3.82285C14.4441 4.78696 13.4753 5.84943 12.5149 6.92533L4.67764 1.18866ZM4.84213 12.7664L6.81685 13.5259C6.32153 14.1157 5.94169 14.5721 5.71762 14.8422L4.24191 13.3665L4.84213 12.7664ZM6.17836 15.3029C7.30897 13.9388 13.2852 6.76957 17.2225 2.83222C18.0037 2.05089 18.8563 1.39394 19.5615 1.02971C20.0908 0.756117 20.7992 0.507368 21.1671 0.875289C21.535 1.24321 21.2861 1.95152 21.0127 2.48091C20.6484 3.18604 19.9913 4.03853 19.21 4.81986C15.273 8.75688 8.10356 14.7332 6.73947 15.864L6.17836 15.3029ZM9.27597 17.2002L8.67592 17.8003L7.20021 16.3246C7.47011 16.1007 7.92665 15.7208 8.51646 15.2255L9.27597 17.2002ZM20.6473 12.1281C20.7906 11.9847 21.0237 11.9847 21.1671 12.1281C21.3104 12.2714 21.3104 12.5046 21.1671 12.6479L20.7859 13.0291L20.5472 12.2281L20.6473 12.1281ZM19.9134 9.43716C20.0566 9.29382 20.2899 9.29399 20.4333 9.43716C20.5749 9.57882 20.5749 9.81532 20.4333 9.95698L19.9999 10.3904L19.7612 9.58923L19.9134 9.43716Z" fill="#0B1D26"/>
<path d="M19.4689 18.7217L16.7013 21.4893C16.5833 21.6075 16.5754 21.8025 16.684 21.9294C16.8054 22.0711 17.0281 22.08 17.16 21.948L19.9277 19.1804C20.0544 19.0537 20.0544 18.8484 19.9277 18.7217C19.8011 18.5951 19.5956 18.5951 19.4689 18.7217Z" fill="#0B1D26"/>
<path d="M18.544 17.7965C18.6707 17.67 18.6707 17.4645 18.544 17.338C18.4174 17.2112 18.212 17.2112 18.0854 17.338L16.3556 19.0676C16.2376 19.1858 16.2297 19.3808 16.3383 19.5077C16.4597 19.6494 16.6824 19.6583 16.8143 19.5264L18.544 17.7965Z" fill="#0B1D26"/>
<path d="M17.5056 16.0668C17.6323 15.9401 17.6323 15.7347 17.5056 15.6081C17.3789 15.4814 17.1736 15.4814 17.0469 15.6081L15.836 16.819C15.718 16.9369 15.7102 17.1322 15.8189 17.259C15.9401 17.4007 16.1628 17.4096 16.2948 17.2777L17.5056 16.0668Z" fill="#0B1D26"/>
<path d="M3.3214 2.28877C3.19467 2.16221 2.98923 2.16221 2.86267 2.28877L0.0950433 5.05656C-0.0316811 5.18312 -0.0316811 5.38856 0.0950433 5.51512C0.219921 5.64 0.428723 5.64 0.553769 5.51512L3.3214 2.74749C3.44795 2.62077 3.44795 2.41549 3.3214 2.28877Z" fill="#0B1D26"/>
<path d="M4.7042 3.67268C4.57748 3.54596 4.3722 3.54596 4.24564 3.67268L2.51581 5.40251C2.39765 5.52051 2.38993 5.71555 2.49852 5.84244C2.61988 5.9841 2.84244 5.993 2.97437 5.86107L4.7042 4.13141C4.83092 4.00468 4.83092 3.79924 4.7042 3.67268Z" fill="#0B1D26"/>
<path d="M4.76484 6.38003C4.88989 6.50491 5.09852 6.50491 5.22357 6.38003L6.43441 5.16918C6.56097 5.04246 6.56097 4.83718 6.43441 4.71046C6.30769 4.5839 6.10241 4.5839 5.97569 4.71046L4.76484 5.9213C4.63828 6.04803 4.63828 6.2533 4.76484 6.38003Z" fill="#0B1D26"/>
</g>
<defs>
<clipPath id="clip0">
<rect width="22" height="22" fill="white"/>
</clipPath>
</defs>
</svg>
