<svg width="26" height="14" viewBox="0 0 26 14" fill="none" xmlns="http://www.w3.org/2000/svg">
<path d="M25.65 6.89928L25.1379 6.3872L24.1063 3.29227C24.2602 3.24337 24.3718 3.09941 24.3718 2.92934C24.3718 2.719 24.2013 2.54848 23.9909 2.54848H20.3011V0.894125C20.3011 0.459639 19.9477 0.106201 19.5132 0.106201H0.787923C0.353438 0.106201 0 0.45969 0 0.894125V9.84962C0 10.2841 0.353438 10.6375 0.787923 10.6375H1.22119V11.4777C1.22119 11.9122 1.57463 12.2656 2.00911 12.2656H2.88616C3.06471 13.1918 3.88102 13.8939 4.85861 13.8939C5.52801 13.8939 6.12159 13.5645 6.48686 13.0596C6.85218 13.5645 7.44576 13.8939 8.11516 13.8939C9.09276 13.8939 9.90912 13.1918 10.0876 12.2656H19.576C19.7546 13.1918 20.5709 13.8939 21.5485 13.8939C22.6563 13.8939 23.5576 12.9925 23.5576 11.8847C23.5576 11.876 23.557 11.8674 23.5569 11.8587H25.2121C25.6466 11.8587 26 11.5053 26 11.0708V7.74423C26.0001 7.42507 25.8757 7.125 25.65 6.89928ZM2.88616 11.5039H2.00911C1.99464 11.5039 1.98291 11.4922 1.98291 11.4777V10.6376H3.2852C3.08817 10.8857 2.94837 11.1811 2.88616 11.5039ZM4.85861 13.1322C4.17077 13.1322 3.61121 12.5726 3.61121 11.8848C3.61121 11.1996 4.16661 10.6419 4.85084 10.6376H4.86648C5.55071 10.6418 6.1061 11.1996 6.1061 11.8848C6.10605 12.5726 5.54644 13.1322 4.85861 13.1322ZM8.11522 13.1322C7.42738 13.1322 6.86777 12.5726 6.86777 11.8848C6.86777 11.1996 7.42317 10.6419 8.1074 10.6376H8.12304C8.80726 10.6418 9.36266 11.1996 9.36266 11.8848C9.36261 12.5726 8.80305 13.1322 8.11522 13.1322ZM19.5761 11.5039H10.0877C10.0255 11.1811 9.88566 10.8857 9.68857 10.6375H17.0707C17.281 10.6375 17.4516 10.467 17.4516 10.2567C17.4516 10.0464 17.281 9.87583 17.0707 9.87583H0.787923C0.773451 9.87583 0.76172 9.86409 0.76172 9.84962V0.894125C0.76172 0.879652 0.773451 0.867921 0.787923 0.867921H19.5131C19.5276 0.867921 19.5393 0.879652 19.5393 0.894125V9.87588H18.6992C18.4888 9.87588 18.3183 10.0464 18.3183 10.2567C18.3183 10.4671 18.4888 10.6376 18.6992 10.6376H19.9751C19.778 10.8857 19.6383 11.1811 19.5761 11.5039ZM24.4123 6.61911H21.9556C21.9411 6.61911 21.9294 6.60738 21.9294 6.59291V4.9384H23.8521L24.4123 6.61911ZM21.5485 13.1322C20.8607 13.1322 20.3011 12.5726 20.3011 11.8848C20.3011 11.1996 20.8565 10.6419 21.5407 10.6376H21.5486C21.5494 10.6376 21.5503 10.6375 21.5512 10.6374C22.2378 10.6389 22.796 11.1979 22.796 11.8848C22.7959 12.5726 22.2363 13.1322 21.5485 13.1322ZM25.2383 11.0709C25.2383 11.0854 25.2266 11.0971 25.2121 11.0971H23.3966C23.0896 10.3797 22.3769 9.87572 21.5485 9.87572C21.5459 9.87572 21.5433 9.87593 21.5407 9.87593H20.3011V3.33656V3.33635C20.3011 3.32188 20.3128 3.31015 20.3273 3.31015H23.3094L23.5982 4.17668H21.5485C21.3382 4.17668 21.1676 4.34721 21.1676 4.55754V6.59291C21.1676 7.0274 21.5211 7.38084 21.9556 7.38084H25.0544L25.1114 7.43791C25.1932 7.51977 25.2383 7.62855 25.2383 7.74428V8.65469H24.8051C24.5947 8.65469 24.4242 8.82521 24.4242 9.03555C24.4242 9.24588 24.5947 9.41641 24.8051 9.41641H25.2383V11.0709Z" fill="black"/>
</svg>
