<svg width="28" height="28" viewBox="0 0 28 28" fill="none" xmlns="http://www.w3.org/2000/svg">
<path d="M11.608 21.3416L8.30851 24.6409C6.94062 26.0088 4.72544 26.0088 3.3587 24.6412C1.9917 23.2742 1.9917 21.0589 3.35843 19.6922L9.95848 13.0923C11.3252 11.7255 13.5406 11.7255 14.9073 13.0923C15.363 13.5479 16.1017 13.5479 16.5573 13.0923C17.0129 12.6367 17.0129 11.898 16.5573 11.4424C14.2793 9.1644 10.5865 9.1644 8.30851 11.4424L1.70851 18.0422C-0.569505 20.3202 -0.569505 24.0128 1.70851 26.2908C3.98626 28.57 7.67931 28.57 9.95853 26.2908L13.258 22.9914C13.7136 22.5358 13.7136 21.7971 13.258 21.3415C12.8024 20.8859 12.0636 20.886 11.608 21.3416Z" fill="#F6FBF9"/>
<path d="M26.2911 1.70847C24.0131 -0.569491 20.3191 -0.569491 18.0411 1.70847L14.0825 5.66699C13.6269 6.1226 13.6269 6.86132 14.0825 7.31693C14.5381 7.77253 15.2769 7.77253 15.7325 7.31693L19.6911 3.3584C21.0578 1.99165 23.2744 1.99165 24.6412 3.3584C26.0079 4.72511 26.0079 6.94046 24.6412 8.30716L17.382 15.5663C16.0152 16.933 13.7998 16.933 12.4331 15.5663C11.9775 15.1106 11.2387 15.1106 10.7831 15.5663C10.3275 16.0219 10.3275 16.7606 10.7831 17.2162C13.0611 19.4941 16.7539 19.4941 19.0319 17.2162L26.2911 9.95714C28.5692 7.67918 28.5692 3.98644 26.2911 1.70847Z" fill="#F6FBF9"/>
</svg>
