<svg width="92" height="77" viewBox="0 0 92 77" fill="none" xmlns="http://www.w3.org/2000/svg">
<path d="M39.2082 12.8216L24.4026 38.4653L39.2079 64.1087L68.8188 64.1087L83.6238 38.4652L68.8186 12.8218L39.2082 12.8216ZM64.8109 16.292L53.0089 36.7251L29.4118 36.7297L41.2117 16.2918L64.8109 16.292ZM29.4111 40.1998L53.0089 40.1953L64.8118 60.6385L41.2114 60.6386L29.4111 40.1998ZM67.8171 58.9034L56.0142 38.4602L67.8165 18.0265L79.6169 38.4653L67.8171 58.9034Z" fill="#F6FBF9"/>
<line x1="57.9694" y1="14.4997" x2="8.96946" y2="13.4997" stroke="#F6FBF9" stroke-width="3"/>
<line x1="36" y1="22.5" x2="4" y2="22.5" stroke="#F6FBF9" stroke-width="3"/>
<line x1="32" y1="29.5" y2="29.5" stroke="#F6FBF9" stroke-width="3"/>
<line x1="30" y1="43.5" x2="6" y2="43.5" stroke="#F6FBF9" stroke-width="3"/>
<line x1="44" y1="62.5" x2="24" y2="62.5" stroke="#F6FBF9" stroke-width="3"/>
<line x1="36" y1="53.5" x2="16" y2="53.5" stroke="#F6FBF9" stroke-width="3"/>
<path d="M29.0006 35.5C29.0006 40.4705 27.0005 44 20.0006 43.5C15.03 43.5 24 40.9705 24 36C24 31.0294 15.0301 28 20.0006 28C29.5005 28.5 29.0006 30.5294 29.0006 35.5Z" fill="#F6FBF9"/>
<path d="M30 46L33 52H27L27.0833 51.9237C28.7626 50.3838 29.8034 48.27 30 46Z" fill="#F6FBF9"/>
<path d="M24.22 23.5L33.4737 22.8742L30.5002 28C31.0334 26.5698 30.2036 24.9939 28.7227 24.6242L24.22 23.5Z" fill="#F6FBF9"/>
<path d="M28.4998 15L38.6149 14.8495L35.6414 19.9753C36.1798 18.5309 35.3695 16.9348 33.8858 16.5169L28.4998 15Z" fill="#F6FBF9"/>
<path d="M35 56L38 62H32C34.5356 61.7464 36.1536 59.1724 35.2828 56.7776L35 56Z" fill="#F6FBF9"/>
</svg>
