<svg width="28" height="20" viewBox="0 0 28 20" fill="none" xmlns="http://www.w3.org/2000/svg">
<path d="M25.5391 0H2.46094C1.10124 0 0 1.12567 0 2.5V17.5C0 18.8825 1.10934 20 2.46094 20H25.5391C26.8874 20 28 18.8872 28 17.5V2.5C28 1.12811 26.9031 0 25.5391 0ZM25.1944 1.66667C24.6916 2.17472 16.0389 10.9185 15.7402 11.2204C15.2753 11.6926 14.6573 11.9526 14 11.9526C13.3427 11.9526 12.7247 11.6926 12.2583 11.2188C12.0574 11.0158 3.50016 2.36856 2.80558 1.66667H25.1944ZM1.64062 17.1608V2.84028L8.7302 10.0044L1.64062 17.1608ZM2.80662 18.3333L9.89341 11.1798L11.0998 12.3989C11.8745 13.1859 12.9044 13.6193 14 13.6193C15.0956 13.6193 16.1255 13.1859 16.8987 12.4004L18.1066 11.1798L25.1934 18.3333H2.80662ZM26.3594 17.1608L19.2698 10.0044L26.3594 2.84028V17.1608Z" fill="#F6FBF9"/>
</svg>
