<svg width="85" height="662" viewBox="0 0 85 662" fill="none" xmlns="http://www.w3.org/2000/svg">
<line x1="43.5" y1="138.5" x2="43.5" y2="133.706" stroke="#35D2D2" stroke-linecap="round"/>
<line x1="43.5" y1="130.967" x2="43.5" y2="126.173" stroke="#35D2D2" stroke-linecap="round"/>
<line x1="43.5" y1="124.014" x2="43.5" y2="119.22" stroke="#35D2D2" stroke-linecap="round"/>
<line x1="43.5" y1="117.061" x2="43.5" y2="112.266" stroke="#35D2D2" stroke-linecap="round"/>
<line x1="43.5" y1="110.107" x2="43.5" y2="105.313" stroke="#35D2D2" stroke-linecap="round"/>
<line x1="43.5" y1="103.154" x2="43.5" y2="98.3599" stroke="#35D2D2" stroke-linecap="round"/>
<line x1="43.5" y1="96.2009" x2="43.5" y2="91.4065" stroke="#35D2D2" stroke-linecap="round"/>
<line x1="43.5" y1="89.2476" x2="43.5" y2="84.4532" stroke="#35D2D2" stroke-linecap="round"/>
<line x1="43.5" y1="82.2944" x2="43.5" y2="77.5" stroke="#35D2D2" stroke-linecap="round"/>
<line x1="43.5" y1="284.5" x2="43.5" y2="279.706" stroke="#35D2D2" stroke-linecap="round"/>
<line x1="43.5" y1="276.967" x2="43.5" y2="272.173" stroke="#35D2D2" stroke-linecap="round"/>
<line x1="43.5" y1="270.014" x2="43.5" y2="265.22" stroke="#35D2D2" stroke-linecap="round"/>
<line x1="43.5" y1="263.061" x2="43.5" y2="258.266" stroke="#35D2D2" stroke-linecap="round"/>
<line x1="43.5" y1="256.107" x2="43.5" y2="251.313" stroke="#35D2D2" stroke-linecap="round"/>
<line x1="43.5" y1="249.154" x2="43.5" y2="244.36" stroke="#35D2D2" stroke-linecap="round"/>
<line x1="43.5" y1="242.201" x2="43.5" y2="237.407" stroke="#35D2D2" stroke-linecap="round"/>
<line x1="43.5" y1="235.248" x2="43.5" y2="230.453" stroke="#35D2D2" stroke-linecap="round"/>
<line x1="43.5" y1="228.294" x2="43.5" y2="223.5" stroke="#35D2D2" stroke-linecap="round"/>
<line x1="43.5" y1="430.5" x2="43.5" y2="425.706" stroke="#35D2D2" stroke-linecap="round"/>
<line x1="43.5" y1="422.967" x2="43.5" y2="418.173" stroke="#35D2D2" stroke-linecap="round"/>
<line x1="43.5" y1="416.014" x2="43.5" y2="411.22" stroke="#35D2D2" stroke-linecap="round"/>
<line x1="43.5" y1="409.061" x2="43.5" y2="404.266" stroke="#35D2D2" stroke-linecap="round"/>
<line x1="43.5" y1="402.107" x2="43.5" y2="397.313" stroke="#35D2D2" stroke-linecap="round"/>
<line x1="43.5" y1="395.154" x2="43.5" y2="390.36" stroke="#35D2D2" stroke-linecap="round"/>
<line x1="43.5" y1="388.201" x2="43.5" y2="383.407" stroke="#35D2D2" stroke-linecap="round"/>
<line x1="43.5" y1="381.248" x2="43.5" y2="376.453" stroke="#35D2D2" stroke-linecap="round"/>
<line x1="43.5" y1="374.294" x2="43.5" y2="369.5" stroke="#35D2D2" stroke-linecap="round"/>
<line x1="43.5" y1="576.5" x2="43.5" y2="571.706" stroke="#35D2D2" stroke-linecap="round"/>
<line x1="43.5" y1="568.967" x2="43.5" y2="564.173" stroke="#35D2D2" stroke-linecap="round"/>
<line x1="43.5" y1="562.014" x2="43.5" y2="557.22" stroke="#35D2D2" stroke-linecap="round"/>
<line x1="43.5" y1="555.061" x2="43.5" y2="550.266" stroke="#35D2D2" stroke-linecap="round"/>
<line x1="43.5" y1="548.107" x2="43.5" y2="543.313" stroke="#35D2D2" stroke-linecap="round"/>
<line x1="43.5" y1="541.154" x2="43.5" y2="536.36" stroke="#35D2D2" stroke-linecap="round"/>
<line x1="43.5" y1="534.201" x2="43.5" y2="529.407" stroke="#35D2D2" stroke-linecap="round"/>
<line x1="43.5" y1="527.248" x2="43.5" y2="522.453" stroke="#35D2D2" stroke-linecap="round"/>
<line x1="43.5" y1="520.294" x2="43.5" y2="515.5" stroke="#35D2D2" stroke-linecap="round"/>
<ellipse cx="42.5012" cy="42.0751" rx="34.7727" ry="34.425" fill="#35D2D2"/>
<ellipse cx="42.5" cy="42.075" rx="42.5" ry="42.075" fill="#35D2D2" fill-opacity="0.4"/>
<path d="M46.296 29.8V55H41.616V33.724H36.288V29.8H46.296Z" fill="white"/>
<path d="M77.274 181.075C77.274 200.088 61.7057 215.5 42.5012 215.5C23.2968 215.5 7.72852 200.088 7.72852 181.075C7.72852 162.063 23.2968 146.65 42.5012 146.65C61.7057 146.65 77.274 162.063 77.274 181.075Z" fill="#35D2D2"/>
<path d="M85 181.075C85 204.312 65.9721 223.15 42.5 223.15C19.0279 223.15 0 204.312 0 181.075C0 157.838 19.0279 139 42.5 139C65.9721 139 85 157.838 85 181.075Z" fill="#35D2D2" fill-opacity="0.4"/>
<path d="M51.836 189.04V193H33.26V189.868L43.268 180.364C44.396 179.284 45.152 178.348 45.536 177.556C45.944 176.74 46.148 175.936 46.148 175.144C46.148 173.968 45.752 173.068 44.96 172.444C44.168 171.82 43.004 171.508 41.468 171.508C38.9 171.508 36.932 172.384 35.564 174.136L32.288 171.616C33.272 170.296 34.592 169.276 36.248 168.556C37.928 167.812 39.8 167.44 41.864 167.44C44.6 167.44 46.784 168.088 48.416 169.384C50.048 170.68 50.864 172.444 50.864 174.676C50.864 176.044 50.576 177.328 50 178.528C49.424 179.728 48.32 181.096 46.688 182.632L39.956 189.04H51.836Z" fill="white"/>
<path d="M77.274 327.075C77.274 346.088 61.7057 361.5 42.5012 361.5C23.2968 361.5 7.72852 346.088 7.72852 327.075C7.72852 308.063 23.2968 292.65 42.5012 292.65C61.7057 292.65 77.274 308.063 77.274 327.075Z" fill="#35D2D2"/>
<path d="M85 327.075C85 350.312 65.9721 369.15 42.5 369.15C19.0279 369.15 0 350.312 0 327.075C0 303.838 19.0279 285 42.5 285C65.9721 285 85 303.838 85 327.075Z" fill="#35D2D2" fill-opacity="0.4"/>
<path d="M44.312 325.204C46.64 325.492 48.416 326.284 49.64 327.58C50.864 328.876 51.476 330.496 51.476 332.44C51.476 333.904 51.104 335.236 50.36 336.436C49.616 337.636 48.488 338.596 46.976 339.316C45.488 340.012 43.664 340.36 41.504 340.36C39.704 340.36 37.964 340.108 36.284 339.604C34.628 339.076 33.212 338.356 32.036 337.444L34.052 333.808C34.964 334.576 36.068 335.188 37.364 335.644C38.684 336.076 40.04 336.292 41.432 336.292C43.088 336.292 44.384 335.956 45.32 335.284C46.28 334.588 46.76 333.652 46.76 332.476C46.76 331.3 46.304 330.388 45.392 329.74C44.504 329.068 43.136 328.732 41.288 328.732H38.984V325.528L44.708 318.724H33.26V314.8H50.432V317.932L44.312 325.204Z" fill="white"/>
<path d="M77.274 473.075C77.274 492.088 61.7057 507.5 42.5012 507.5C23.2968 507.5 7.72852 492.088 7.72852 473.075C7.72852 454.063 23.2968 438.65 42.5012 438.65C61.7057 438.65 77.274 454.063 77.274 473.075Z" fill="#35D2D2"/>
<path d="M85 473.075C85 496.312 65.9721 515.15 42.5 515.15C19.0279 515.15 0 496.312 0 473.075C0 449.838 19.0279 431 42.5 431C65.9721 431 85 449.838 85 473.075Z" fill="#35D2D2" fill-opacity="0.4"/>
<path d="M54.048 480.276H49.584V486H45.048V480.276H31.224V477.036L43.644 460.8H48.648L36.948 476.316H45.192V471.24H49.584V476.316H54.048V480.276Z" fill="white"/>
<ellipse cx="42.5012" cy="619.075" rx="34.7727" ry="34.425" fill="#35D2D2"/>
<ellipse cx="42.5" cy="619.075" rx="42.5" ry="42.075" fill="#35D2D2" fill-opacity="0.4"/>
<path d="M41.468 616.556C45.02 616.556 47.648 617.252 49.352 618.644C51.056 620.012 51.908 621.884 51.908 624.26C51.908 625.772 51.536 627.14 50.792 628.364C50.048 629.588 48.932 630.56 47.444 631.28C45.956 632 44.12 632.36 41.936 632.36C40.136 632.36 38.396 632.108 36.716 631.604C35.036 631.076 33.62 630.356 32.468 629.444L34.448 625.808C35.384 626.576 36.5 627.188 37.796 627.644C39.116 628.076 40.472 628.292 41.864 628.292C43.52 628.292 44.816 627.956 45.752 627.284C46.712 626.588 47.192 625.64 47.192 624.44C47.192 623.144 46.676 622.172 45.644 621.524C44.636 620.852 42.896 620.516 40.424 620.516H34.34L35.636 606.8H50.432V610.724H39.596L39.056 616.556H41.468Z" fill="white"/>
</svg>
