<?xml version="1.0" encoding="iso-8859-1"?>
<!-- Generator: Adobe Illustrator 19.0.0, SVG Export Plug-In . SVG Version: 6.00 Build 0)  -->
<svg version="1.1" id="Layer_1" xmlns="http://www.w3.org/2000/svg" xmlns:xlink="http://www.w3.org/1999/xlink" x="0px" y="0px"
	 viewBox="0 0 512 512" style="enable-background:new 0 0 512 512;" xml:space="preserve">
<g>
	<g>
		<g>
			<path d="M501.333,320h-10.667V117.333c0-5.896-4.771-10.667-10.667-10.667H32c-5.896,0-10.667,4.771-10.667,10.667V320H10.667
				C4.771,320,0,324.771,0,330.667c0,5.896,4.771,10.667,10.667,10.667h16.6c-3.674,6.301-5.934,13.527-5.934,21.333
				c0,23.531,19.135,42.667,42.667,42.667s42.667-19.135,42.667-42.667c0-7.806-2.259-15.033-5.934-21.333H112.6
				c-3.674,6.301-5.934,13.527-5.934,21.333c0,23.531,19.135,42.667,42.667,42.667S192,386.198,192,362.667
				c0-7.806-2.259-15.033-5.934-21.333h1.517l18.208,18.208c2,2,4.708,3.125,7.542,3.125h85.333c2.833,0,5.542-1.125,7.542-3.125
				l18.208-18.208h1.517c-3.674,6.301-5.934,13.527-5.934,21.333c0,23.531,19.135,42.667,42.667,42.667s42.667-19.135,42.667-42.667
				c0-7.806-2.259-15.033-5.934-21.333h11.867c-3.674,6.301-5.934,13.527-5.934,21.333c0,23.531,19.135,42.667,42.667,42.667
				s42.667-19.135,42.667-42.667c0-7.806-2.259-15.033-5.934-21.333h16.6c5.896,0,10.667-4.771,10.667-10.667
				C512,324.771,507.229,320,501.333,320z M64,384c-11.76,0-21.333-9.573-21.333-21.333S52.24,341.333,64,341.333
				s21.333,9.573,21.333,21.333S75.76,384,64,384z M149.333,384c-11.76,0-21.333-9.573-21.333-21.333s9.573-21.333,21.333-21.333
				c11.76,0,21.333,9.573,21.333,21.333S161.094,384,149.333,384z M170.667,320h-128V128h128V320z M320,320H192V128h128V320z
				 M362.667,384c-11.76,0-21.333-9.573-21.333-21.333s9.573-21.333,21.333-21.333S384,350.906,384,362.667S374.427,384,362.667,384
				z M448,384c-11.76,0-21.333-9.573-21.333-21.333s9.573-21.333,21.333-21.333c11.76,0,21.333,9.573,21.333,21.333
				S459.76,384,448,384z M469.333,320h-128V128h128V320z"/>
			<path d="M74.667,170.667h64c5.896,0,10.667-4.771,10.667-10.667s-4.771-10.667-10.667-10.667h-64
				C68.771,149.333,64,154.104,64,160S68.771,170.667,74.667,170.667z"/>
			<path d="M74.667,213.333h64c5.896,0,10.667-4.771,10.667-10.667c0-5.896-4.771-10.667-10.667-10.667h-64
				C68.771,192,64,196.771,64,202.667C64,208.563,68.771,213.333,74.667,213.333z"/>
			<path d="M74.667,256h64c5.896,0,10.667-4.771,10.667-10.667c0-5.896-4.771-10.667-10.667-10.667h-64
				c-5.896,0-10.667,4.771-10.667,10.667C64,251.229,68.771,256,74.667,256z"/>
			<path d="M74.667,298.667h64c5.896,0,10.667-4.771,10.667-10.667s-4.771-10.667-10.667-10.667h-64
				C68.771,277.333,64,282.104,64,288S68.771,298.667,74.667,298.667z"/>
			<path d="M224,170.667h64c5.896,0,10.667-4.771,10.667-10.667s-4.771-10.667-10.667-10.667h-64
				c-5.896,0-10.667,4.771-10.667,10.667S218.104,170.667,224,170.667z"/>
			<path d="M224,213.333h64c5.896,0,10.667-4.771,10.667-10.667c0-5.896-4.771-10.667-10.667-10.667h-64
				c-5.896,0-10.667,4.771-10.667,10.667C213.333,208.563,218.104,213.333,224,213.333z"/>
			<path d="M224,256h64c5.896,0,10.667-4.771,10.667-10.667c0-5.896-4.771-10.667-10.667-10.667h-64
				c-5.896,0-10.667,4.771-10.667,10.667C213.333,251.229,218.104,256,224,256z"/>
			<path d="M224,298.667h64c5.896,0,10.667-4.771,10.667-10.667s-4.771-10.667-10.667-10.667h-64
				c-5.896,0-10.667,4.771-10.667,10.667S218.104,298.667,224,298.667z"/>
			<path d="M373.333,170.667h64c5.896,0,10.667-4.771,10.667-10.667s-4.771-10.667-10.667-10.667h-64
				c-5.896,0-10.667,4.771-10.667,10.667S367.438,170.667,373.333,170.667z"/>
			<path d="M373.333,213.333h64c5.896,0,10.667-4.771,10.667-10.667c0-5.896-4.771-10.667-10.667-10.667h-64
				c-5.896,0-10.667,4.771-10.667,10.667C362.667,208.563,367.438,213.333,373.333,213.333z"/>
			<path d="M373.333,256h64c5.896,0,10.667-4.771,10.667-10.667c0-5.896-4.771-10.667-10.667-10.667h-64
				c-5.896,0-10.667,4.771-10.667,10.667C362.667,251.229,367.438,256,373.333,256z"/>
			<path d="M373.333,298.667h64c5.896,0,10.667-4.771,10.667-10.667s-4.771-10.667-10.667-10.667h-64
				c-5.896,0-10.667,4.771-10.667,10.667S367.438,298.667,373.333,298.667z"/>
		</g>
	</g>
</g>
<g>
</g>
<g>
</g>
<g>
</g>
<g>
</g>
<g>
</g>
<g>
</g>
<g>
</g>
<g>
</g>
<g>
</g>
<g>
</g>
<g>
</g>
<g>
</g>
<g>
</g>
<g>
</g>
<g>
</g>
</svg>
