<svg width="50" height="50" viewBox="0 0 50 50" fill="none" xmlns="http://www.w3.org/2000/svg">
<path d="M21 0C19.3555 0 18 1.35547 18 3V5H10.1875C10.0625 4.97656 9.93752 4.97656 9.81252 5H8.00002C7.96877 5 7.93752 5 7.90627 5C7.35548 5.02734 6.9258 5.49609 6.95314 6.04688C6.98048 6.59766 7.44923 7.02734 8.00002 7H9.09377L12.6875 47.5C12.8125 48.8984 14.0039 50 15.4063 50H34.5938C35.9961 50 37.1875 48.8984 37.3125 47.5L40.9063 7H42C42.3594 7.00391 42.6953 6.81641 42.8789 6.50391C43.0586 6.19141 43.0586 5.80859 42.8789 5.49609C42.6953 5.18359 42.3594 4.99609 42 5H32V3C32 1.35547 30.6445 0 29 0H21ZM21 2H29C29.5625 2 30 2.4375 30 3V5H20V3C20 2.4375 20.4375 2 21 2ZM11.0938 7H38.9063L35.3125 47.3438C35.2813 47.6914 34.9102 48 34.5938 48H15.4063C15.0899 48 14.7188 47.6914 14.6875 47.3438L11.0938 7ZM18.9063 9.96875C18.8633 9.97656 18.8203 9.98828 18.7813 10C18.3164 10.1055 17.9883 10.5234 18 11V44C17.9961 44.3594 18.1836 44.6953 18.4961 44.8789C18.8086 45.0586 19.1914 45.0586 19.5039 44.8789C19.8164 44.6953 20.0039 44.3594 20 44V11C20.0117 10.7109 19.8945 10.4336 19.6875 10.2383C19.4766 10.0391 19.1914 9.94141 18.9063 9.96875ZM24.9063 9.96875C24.8633 9.97656 24.8203 9.98828 24.7813 10C24.3164 10.1055 23.9883 10.5234 24 11V44C23.9961 44.3594 24.1836 44.6953 24.4961 44.8789C24.8086 45.0586 25.1914 45.0586 25.5039 44.8789C25.8164 44.6953 26.0039 44.3594 26 44V11C26.0117 10.7109 25.8945 10.4336 25.6875 10.2383C25.4766 10.0391 25.1914 9.94141 24.9063 9.96875ZM30.9063 9.96875C30.8633 9.97656 30.8203 9.98828 30.7813 10C30.3164 10.1055 29.9883 10.5234 30 11V44C29.9961 44.3594 30.1836 44.6953 30.4961 44.8789C30.8086 45.0586 31.1914 45.0586 31.5039 44.8789C31.8164 44.6953 32.0039 44.3594 32 44V11C32.0117 10.7109 31.8945 10.4336 31.6875 10.2383C31.4766 10.0391 31.1914 9.94141 30.9063 9.96875Z" fill="#F06666"/>
</svg>
