<svg width="31" height="34" viewBox="0 0 31 34" fill="none" xmlns="http://www.w3.org/2000/svg">
<path d="M29.6041 5.43616H21.6791V3.92975C21.6791 1.76289 19.9163 0 17.7494 0H13.1647C10.9978 0 9.23492 1.76289 9.23492 3.92975V5.43616H1.30992C0.58645 5.43616 0 6.02261 0 6.74608C0 7.46954 0.58645 8.05599 1.30992 8.05599H2.66647L4.26287 28.7518C4.26332 28.7579 4.26385 28.764 4.26437 28.7701C4.38331 30.075 4.98181 31.2802 5.94958 32.1638C6.91735 33.0473 8.17199 33.5339 9.48236 33.5339H21.4317C24.1607 33.5339 26.4039 31.5014 26.6497 28.8062C26.7154 28.0857 26.1846 27.4484 25.4641 27.3827C24.743 27.317 24.1064 27.8478 24.0407 28.5683C23.9188 29.9056 22.7972 30.9141 21.4317 30.9141H9.48236C8.12156 30.9141 7.00171 29.8942 6.87412 28.5404L5.2941 8.05599H25.62L24.5012 22.5608C24.4456 23.2822 24.9852 23.912 25.7065 23.9676C25.7408 23.9703 25.7748 23.9716 25.8087 23.9716C26.4863 23.9716 27.0603 23.4493 27.1133 22.7623L28.2476 8.05599H29.6041C30.3276 8.05599 30.9141 7.46954 30.9141 6.74608C30.9141 6.02261 30.3276 5.43616 29.6041 5.43616ZM19.0593 5.43616H11.8548V3.92975C11.8548 3.20746 12.4424 2.61984 13.1647 2.61984H17.7494C18.4717 2.61984 19.0593 3.20746 19.0593 3.92975V5.43616Z" fill="#FF0000" fill-opacity="0.4"/>
<path d="M9.50472 10.6771C8.78197 10.7086 8.22166 11.3201 8.25322 12.0429L8.90818 27.0371C8.9389 27.7404 9.51874 28.2899 10.2159 28.2899C10.2351 28.2899 10.2546 28.2895 10.274 28.2886C10.9968 28.257 11.5571 27.6455 11.5255 26.9227L10.8706 11.9285C10.839 11.2058 10.2264 10.6446 9.50472 10.6771Z" fill="#FF0000" fill-opacity="0.4"/>
<path d="M20.0429 11.9286L19.388 26.9228C19.3564 27.6456 19.9167 28.2571 20.6395 28.2887C20.6589 28.2895 20.6783 28.29 20.6976 28.29C21.3947 28.29 21.9746 27.7405 22.0053 27.0372L22.6603 12.043C22.6919 11.3203 22.1315 10.7087 21.4088 10.6772C20.6872 10.6449 20.0745 11.2059 20.0429 11.9286Z" fill="#FF0000" fill-opacity="0.4"/>
<path d="M14.1465 11.9858V26.9799C14.1465 27.7034 14.7329 28.2899 15.4564 28.2899C16.1799 28.2899 16.7663 27.7034 16.7663 26.9799V11.9858C16.7663 11.2623 16.1799 10.6758 15.4564 10.6758C14.7329 10.6758 14.1465 11.2623 14.1465 11.9858Z" fill="#FF0000" fill-opacity="0.4"/>
</svg>
