<svg width="80" height="80" viewBox="0 0 100 100" fill="none" xmlns="http://www.w3.org/2000/svg">
<g clip-path="url(#clip0)">
<path d="M18.7022 67.3228H18.6863C17.8773 67.3228 17.2295 67.9786 17.2295 68.7876C17.2295 69.5966 17.8932 70.2525 18.7022 70.2525C19.5111 70.2525 20.167 69.5966 20.167 68.7876C20.167 67.9786 19.5111 67.3228 18.7022 67.3228Z" fill="#F6FBF9"/>
<path d="M31.2275 67.3228H31.2119C30.4029 67.3228 29.7549 67.9786 29.7549 68.7876C29.7549 69.5966 30.4186 70.2525 31.2275 70.2525C32.0365 70.2525 32.6924 69.5966 32.6924 68.7876C32.6924 67.9786 32.0365 67.3228 31.2275 67.3228Z" fill="#F6FBF9"/>
<path d="M82.8945 67.3228H82.8789C82.0699 67.3228 81.4219 67.9786 81.4219 68.7876C81.4219 69.5966 82.0856 70.2525 82.8945 70.2525C83.7035 70.2525 84.3594 69.5966 84.3594 68.7876C84.3594 67.9786 83.7035 67.3228 82.8945 67.3228Z" fill="#F6FBF9"/>
<path d="M98.6539 49.6126L96.6844 47.643L92.7166 35.7395C93.3086 35.5514 93.7377 34.9977 93.7377 34.3436C93.7377 33.5346 93.0818 32.8787 92.2728 32.8787H78.0812V26.5158C78.0812 24.8447 76.7218 23.4854 75.0507 23.4854H3.03047C1.35938 23.4854 0 24.8449 0 26.5158V60.96C0 62.6311 1.35938 63.9905 3.03047 63.9905H4.69688V67.2218C4.69688 68.8929 6.05626 70.2523 7.72736 70.2523H11.1006C11.7873 73.8148 14.927 76.5148 18.687 76.5148C21.2616 76.5148 23.5446 75.248 24.9495 73.3062C26.3545 75.248 28.6376 76.5148 31.2122 76.5148C34.9721 76.5148 38.112 73.8148 38.7985 70.2523H75.2923C75.9791 73.8148 79.1187 76.5148 82.8787 76.5148C87.1396 76.5148 90.606 73.0482 90.606 68.7874C90.606 68.7538 90.6039 68.7208 90.6035 68.6874H96.9695C98.6406 68.6874 100 67.328 100 65.6569V52.8624C100 51.6348 99.5221 50.4807 98.6539 49.6126ZM11.1006 67.3227H7.72736C7.67169 67.3227 7.62658 67.2776 7.62658 67.222V63.9907H12.6354C11.8776 64.945 11.3399 66.0809 11.1006 67.3227ZM18.687 73.5855C16.0414 73.5855 13.8893 71.4331 13.8893 68.7878C13.8893 66.1524 16.0254 64.0071 18.6571 63.9907H18.7172C21.3489 64.0069 23.485 66.1522 23.485 68.7878C23.4848 71.4331 21.3325 73.5855 18.687 73.5855ZM31.2124 73.5855C28.5669 73.5855 26.4145 71.4331 26.4145 68.7878C26.4145 66.1524 28.5506 64.0071 31.1823 63.9907H31.2424C33.8741 64.0069 36.0102 66.1522 36.0102 68.7878C36.01 71.4331 33.8579 73.5855 31.2124 73.5855ZM75.2925 67.3227H38.7987C38.5595 66.0809 38.0218 64.9448 37.2637 63.9905H65.6566C66.4656 63.9905 67.1214 63.3347 67.1214 62.5257C67.1214 61.7167 66.4656 61.0608 65.6566 61.0608H3.03047C2.97481 61.0608 2.92969 61.0157 2.92969 60.96V26.5158C2.92969 26.4602 2.97481 26.415 3.03047 26.415H75.0505C75.1062 26.415 75.1513 26.4602 75.1513 26.5158V61.061H71.9199C71.1109 61.061 70.455 61.7169 70.455 62.5259C70.455 63.3349 71.1109 63.9907 71.9199 63.9907H76.8273C76.0693 64.945 75.5318 66.0809 75.2925 67.3227ZM93.8935 48.535H84.4445C84.3888 48.535 84.3437 48.4899 84.3437 48.4342V42.0707H91.7389L93.8935 48.535ZM82.8789 73.5855C80.2334 73.5855 78.0812 71.4331 78.0812 68.7878C78.0812 66.1524 80.2173 64.0071 82.849 63.9907H82.8791C82.8824 63.9907 82.8857 63.9903 82.8892 63.9901C85.5301 63.9956 87.6769 66.1456 87.6769 68.7876C87.6765 71.4331 85.5244 73.5855 82.8789 73.5855ZM97.0705 65.6573C97.0705 65.713 97.0254 65.7581 96.9697 65.7581H89.9869C88.8062 62.9989 86.065 61.0604 82.8789 61.0604C82.8687 61.0604 82.859 61.0612 82.8488 61.0612H78.0812V35.9098V35.909C78.0812 35.8533 78.1263 35.8082 78.182 35.8082H89.6514L90.7623 39.141H82.8789C82.0699 39.141 81.414 39.7969 81.414 40.6059V48.4342C81.414 50.1053 82.7734 51.4647 84.4445 51.4647H96.3629L96.5824 51.6842C96.8971 51.9991 97.0705 52.4174 97.0705 52.8626V56.3641H95.4041C94.5951 56.3641 93.9392 57.02 93.9392 57.829C93.9392 58.638 94.5951 59.2938 95.4041 59.2938H97.0705V65.6573Z" fill="#F6FBF9"/>
<path d="M40.6535 56.2501H-21.9727C-22.7816 56.2501 -23.4375 56.906 -23.4375 57.715C-23.4375 58.524 -22.7816 59.1798 -21.9727 59.1798H40.6535C41.4624 59.1798 42.1183 58.524 42.1183 57.715C42.1183 56.906 41.4624 56.2501 40.6535 56.2501Z" fill="#F6FBF9"/>
</g>
<defs>
<clipPath id="clip0">
<rect width="100" height="100" fill="white"/>
</clipPath>
</defs>
</svg>
