<svg width="14" height="14" viewBox="0 0 14 14" fill="none" xmlns="http://www.w3.org/2000/svg">
<g clip-path="url(#clip0)">
<path d="M6.99969 7.88564C2.79321 7.88564 0.476562 9.8756 0.476562 13.4891C0.476562 13.7713 0.705293 14 0.987508 14H13.0118C13.2941 14 13.5228 13.7713 13.5228 13.4891C13.5228 9.8758 11.2062 7.88564 6.99969 7.88564ZM1.51705 12.9781C1.71802 10.2764 3.55998 8.90755 6.99969 8.90755C10.4394 8.90755 12.2814 10.2764 12.4825 12.9781H1.51705Z" fill="#F6FBF9"/>
<path d="M7.00061 0C5.06837 0 3.61133 1.48635 3.61133 3.45726C3.61133 5.48589 5.13175 7.13609 7.00061 7.13609C8.86948 7.13609 10.3899 5.48589 10.3899 3.45743C10.3899 1.48635 8.93286 0 7.00061 0ZM7.00061 6.11436C5.69514 6.11436 4.63322 4.92248 4.63322 3.45743C4.63322 2.04619 5.62889 1.02189 7.00061 1.02189C8.35038 1.02189 9.36801 2.06883 9.36801 3.45743C9.36801 4.92248 8.30609 6.11436 7.00061 6.11436Z" fill="#F6FBF9"/>
</g>
<defs>
<clipPath id="clip0">
<rect width="14" height="14" fill="white"/>
</clipPath>
</defs>
</svg>
