<svg width="60" height="60" viewBox="0 0 60 60" fill="none" xmlns="http://www.w3.org/2000/svg">
<path d="M57.2728 30.2516V21.8188C57.2728 18.9593 55.0547 16.6337 52.2523 16.4082L44.4208 2.72948C43.6951 1.46439 42.5232 0.560181 41.1209 0.184719C39.7252 -0.188187 38.2658 0.00766203 37.0167 0.734681L10.1697 16.3643H5.45458C2.44636 16.3643 0 18.8105 0 21.8188V54.5455C0 57.5537 2.44623 60 5.45458 60H51.8182C54.8264 60 57.2728 57.5538 57.2728 54.5455V46.1126C58.8566 45.5478 60 44.0484 60 42.273V34.0913C60 32.3159 58.8566 30.8164 57.2728 30.2516ZM49.0833 16.3643H37.1978L46.112 11.1745L49.0833 16.3643ZM44.757 8.80783L31.7775 16.3643H26.3937L43.4109 6.45675L44.757 8.80783ZM38.3895 3.09165C39.0061 2.73076 39.7265 2.63488 40.4151 2.81871C41.1115 3.0051 41.6922 3.45522 42.0531 4.08508L42.0559 4.09007L20.9737 16.3643H15.5902L38.3895 3.09165ZM54.5454 54.5455C54.5454 56.0489 53.3216 57.2727 51.8182 57.2727H5.45458C3.95117 57.2727 2.72735 56.0489 2.72735 54.5455V21.8188C2.72735 20.3154 3.95117 19.0916 5.45458 19.0916H51.8182C53.3216 19.0916 54.5454 20.3154 54.5454 21.8188V30.0004H46.3636C41.8519 30.0004 38.1818 33.6704 38.1818 38.1821C38.1818 42.6938 41.8519 46.3638 46.3636 46.3638H54.5454V54.5455ZM57.2728 42.273C57.2728 43.0253 56.6616 43.6366 55.9091 43.6366H46.3636C43.3554 43.6366 40.909 41.1904 40.909 38.1821C40.909 35.174 43.3553 32.7276 46.3636 32.7276H55.9091C56.6614 32.7276 57.2728 33.3388 57.2728 34.0913V42.273Z" fill="white"/>
<path d="M46.3639 35.455C44.8605 35.455 43.6367 36.6788 43.6367 38.1821C43.6367 39.6855 44.8605 40.9093 46.3639 40.9093C47.8674 40.9093 49.0912 39.6855 49.0912 38.1821C49.0913 36.6788 47.8675 35.455 46.3639 35.455Z" fill="white"/>
</svg>
