<svg width="512" height="512" viewBox="0 0 512 512" fill="none" xmlns="http://www.w3.org/2000/svg">
<path d="M504.021 95.104L497.984 103.915L503.936 95.04C486.4 83.029 468.117 81.536 449.643 90.453L389.184 118.869L387.392 119.936L349.973 100.373C334.314 89.941 316.458 84.437 297.962 84.437C297.941 84.437 297.941 84.437 297.941 84.437L266.346 85.333C261.823 85.482 257.855 88.469 256.49 92.778C255.125 97.087 256.639 101.823 260.287 104.533L326.719 154.346L274.431 181.525C268.01 180.906 248.618 176.149 239.978 174.037C227.967 171.093 226.111 170.666 223.999 170.666H202.666C198.165 170.666 194.133 173.503 192.618 177.749C191.103 181.994 192.447 186.73 195.946 189.589C214.549 204.778 256.191 236.202 281.813 236.202C285.973 236.202 289.706 235.37 292.842 233.535L504.192 126.08C509.12 122.624 512.021 116.8 512 110.549C511.979 104.277 508.971 98.496 504.021 95.104ZM282.688 214.763C277.547 216.662 260.779 208.896 241.301 196.31C272.17 203.777 277.184 203.947 282.261 201.473L351.573 165.462C354.837 163.755 356.992 160.513 357.29 156.865C357.567 153.217 355.989 149.654 353.045 147.457L297.493 105.793L298.24 105.772C312.213 105.772 326.016 110.039 339.093 118.679L382.784 141.612C386.091 143.34 390.037 143.212 393.237 141.313L458.837 109.718C469.504 104.534 478.954 104.875 488.362 110.315L282.688 214.763Z" fill="white"/>
<path d="M74.667 128H117.334C123.222 128 128.001 123.221 128.001 117.333C128.001 111.445 123.222 106.666 117.334 106.666H74.667C68.779 106.666 64 111.445 64 117.333C64 123.221 68.779 128 74.667 128Z" fill="white"/>
<path d="M160 448H202.667C208.555 448 213.334 443.221 213.334 437.333V394.666C213.334 388.778 208.555 383.999 202.667 383.999H160C154.112 383.999 149.333 388.778 149.333 394.666V437.333C149.333 443.221 154.112 448 160 448ZM170.667 405.333H192V426.666H170.667V405.333Z" fill="white"/>
<path d="M117.333 213.333H74.667C68.779 213.333 64 218.112 64 224V266.667C64 272.555 68.779 277.334 74.667 277.334H117.334C123.222 277.334 128.001 272.555 128.001 266.667V224C128 218.112 123.221 213.333 117.333 213.333ZM106.667 256H85.333V234.667H106.666V256H106.667Z" fill="white"/>
<path d="M266.667 448H309.334C315.222 448 320.001 443.221 320.001 437.333V394.666C320.001 388.778 315.222 383.999 309.334 383.999H266.667C260.779 383.999 256 388.778 256 394.666V437.333C256 443.221 260.779 448 266.667 448ZM277.333 405.333H298.666V426.666H277.333V405.333V405.333Z" fill="white"/>
<path d="M480 341.333H426.667V309.333C426.667 303.445 421.888 298.666 416 298.666H288C282.112 298.666 277.333 303.445 277.333 309.333V341.333H170.667V181.333C170.667 175.445 165.888 170.666 160 170.666H153.472L170.112 120.703C170.475 119.615 170.667 118.484 170.667 117.332V74.667C170.667 68.779 165.888 64 160 64H106.667V10.667C106.667 4.779 101.888 0 96 0C90.112 0 85.333 4.779 85.333 10.667V64H32C26.112 64 21.333 68.779 21.333 74.667V117.334C21.333 118.486 21.525 119.617 21.888 120.705L38.528 170.668H32C26.112 170.668 21.333 175.447 21.333 181.335V341.335H10.667C4.779 341.333 0 346.112 0 352V501.333C0 507.221 4.779 512 10.667 512H480C485.888 512 490.667 507.221 490.667 501.333V352C490.667 346.112 485.888 341.333 480 341.333ZM298.667 320H405.334V341.333H298.667V320ZM42.667 192.021H53.334C56.769 192.021 59.99 190.357 61.995 187.584C63.979 184.789 64.534 181.205 63.446 177.963L42.667 115.606V85.333H149.334V115.584L128.555 177.941C127.446 181.205 128 184.789 130.006 187.562C132.011 190.357 135.233 191.999 138.667 191.999H149.334V341.332H42.667V192.021ZM426.667 490.667H384V405.334H426.667V490.667V490.667ZM469.333 490.667H448V394.667C448 388.779 443.221 384 437.333 384H373.333C367.445 384 362.666 388.779 362.666 394.667V490.667H21.333V362.667H469.333V490.667V490.667Z" fill="white"/>
<path d="M53.333 448H96C101.888 448 106.667 443.221 106.667 437.333V394.666C106.667 388.778 101.888 383.999 96 383.999H53.333C47.445 383.999 42.666 388.778 42.666 394.666V437.333C42.667 443.221 47.445 448 53.333 448ZM64 405.333H85.333V426.666H64V405.333Z" fill="white"/>
</svg>
