<svg width="344" height="470" viewBox="0 0 344 470" fill="none" xmlns="http://www.w3.org/2000/svg">
<path d="M111.987 50.021H231.987C236.129 50.021 239.487 46.664 239.487 42.521C239.487 38.378 236.129 35.021 231.987 35.021H111.987C107.845 35.021 104.487 38.378 104.487 42.521C104.487 46.664 107.845 50.021 111.987 50.021Z" fill="white"/>
<path d="M343.972 402.312L334.478 27.304C334.098 12.248 321.535 0 306.475 0H37.5C22.44 0 9.877 12.248 9.496 27.304L0.0019989 402.312C0.000998901 402.375 0 402.438 0 402.501V412.5C0 427.663 12.336 440 27.5 440H59.393L42.196 457.196C39.267 460.126 39.267 464.874 42.196 467.803C43.66 469.267 45.58 469.999 47.499 469.999C49.418 469.999 51.338 469.267 52.802 467.803L110.606 410H147.94L137.734 461.028C136.922 465.09 139.556 469.041 143.618 469.853C144.115 469.953 144.609 469.999 145.097 469.999C148.599 469.999 151.73 467.534 152.444 463.969L163.238 409.999H180.736L191.53 463.969C192.243 467.534 195.375 469.999 198.877 469.999C199.364 469.999 199.859 469.952 200.356 469.853C204.418 469.04 207.052 465.089 206.24 461.028L196.035 410H233.369L291.172 467.803C292.636 469.267 294.556 469.999 296.475 469.999C298.394 469.999 300.314 469.267 301.778 467.803C304.707 464.873 304.707 460.125 301.778 457.196L284.582 440H316.475C331.639 440 343.975 427.663 343.975 412.5V402.501C343.975 402.438 343.974 402.374 343.972 402.312V402.312ZM63.205 85.041H280.775L285.686 279.555H58.298L63.205 85.041V85.041ZM280.397 70.041H63.584L64.972 15H279.007L280.397 70.041ZM24.491 27.683C24.665 20.808 30.623 15 37.5 15H49.968L43.109 286.865C43.058 288.886 43.825 290.843 45.237 292.291C46.649 293.738 48.585 294.555 50.607 294.555H293.379C295.401 294.555 297.337 293.739 298.749 292.291C300.161 290.843 300.928 288.887 300.877 286.865L294.012 15H306.475C313.352 15 319.31 20.808 319.484 27.683L328.783 395.001H243.976V352.564C243.976 348.421 240.618 345.064 236.476 345.064H107.5C103.358 345.064 100 348.421 100 352.564V395.001H15.192L24.491 27.683V27.683ZM186.961 395.001C186.937 395.001 186.912 395.001 186.888 395.001H157.088C157.063 395.001 157.039 395.001 157.015 395.001H115.001V360.064H228.976V395.001H186.961V395.001ZM27.5 425C20.607 425 15 419.393 15 412.5V410.001H89.393L74.394 425H27.5ZM316.475 425H269.582L254.583 410.001H328.975V412.5C328.975 419.393 323.367 425 316.475 425V425Z" fill="white"/>
<path d="M262.619 249.555H232.619C228.477 249.555 225.119 252.912 225.119 257.055C225.119 261.198 228.477 264.555 232.619 264.555H262.619C266.761 264.555 270.119 261.198 270.119 257.055C270.119 252.912 266.761 249.555 262.619 249.555Z" fill="white"/>
<path d="M202.619 249.555H141.366C137.224 249.555 133.866 252.912 133.866 257.055C133.866 261.198 137.224 264.555 141.366 264.555H202.619C206.761 264.555 210.119 261.198 210.119 257.055C210.119 252.912 206.761 249.555 202.619 249.555Z" fill="white"/>
<path d="M111.366 249.555H81.366C77.224 249.555 73.866 252.912 73.866 257.055C73.866 261.198 77.224 264.555 81.366 264.555H111.366C115.508 264.555 118.866 261.198 118.866 257.055C118.866 252.912 115.508 249.555 111.366 249.555Z" fill="white"/>
</svg>
