<svg width="36" height="36" viewBox="0 0 36 36" fill="none" xmlns="http://www.w3.org/2000/svg">
<path d="M32 30H4C3.46957 30 2.96086 29.7893 2.58579 29.4142C2.21071 29.0391 2 28.5304 2 28V8C2 7.46957 2.21071 6.96086 2.58579 6.58579C2.96086 6.21071 3.46957 6 4 6H32C32.5304 6 33.0391 6.21071 33.4142 6.58579C33.7893 6.96086 34 7.46957 34 8V28C34 28.5304 33.7893 29.0391 33.4142 29.4142C33.0391 29.7893 32.5304 30 32 30ZM4 8V28H32V8H4Z" fill="white"/>
<path d="M8.99995 25.3C8.78778 25.3 8.5843 25.2157 8.43427 25.0656C8.28424 24.9156 8.19995 24.7121 8.19995 24.5V11.5C8.19995 11.2878 8.28424 11.0843 8.43427 10.9343C8.5843 10.7842 8.78778 10.7 8.99995 10.7C9.21212 10.7 9.41561 10.7842 9.56564 10.9343C9.71567 11.0843 9.79995 11.2878 9.79995 11.5V24.5C9.79995 24.7121 9.71567 24.9156 9.56564 25.0656C9.41561 25.2157 9.21212 25.3 8.99995 25.3Z" fill="white"/>
<path d="M14.92 25.3C14.7078 25.3 14.5043 25.2157 14.3543 25.0656C14.2043 24.9156 14.12 24.7121 14.12 24.5V11.5C14.12 11.2878 14.2043 11.0843 14.3543 10.9343C14.5043 10.7842 14.7078 10.7 14.92 10.7C15.1322 10.7 15.3357 10.7842 15.4857 10.9343C15.6357 11.0843 15.72 11.2878 15.72 11.5V24.5C15.72 24.7121 15.6357 24.9156 15.4857 25.0656C15.3357 25.2157 15.1322 25.3 14.92 25.3Z" fill="white"/>
<path d="M21 25.3C20.7878 25.3 20.5843 25.2157 20.4343 25.0656C20.2842 24.9156 20.2 24.7121 20.2 24.5V11.5C20.2 11.2878 20.2842 11.0843 20.4343 10.9343C20.5843 10.7842 20.7878 10.7 21 10.7C21.2121 10.7 21.4156 10.7842 21.5656 10.9343C21.7157 11.0843 21.7999 11.2878 21.7999 11.5V24.5C21.7999 24.7121 21.7157 24.9156 21.5656 25.0656C21.4156 25.2157 21.2121 25.3 21 25.3Z" fill="white"/>
<path d="M27 25.3C26.7878 25.3 26.5843 25.2157 26.4343 25.0656C26.2842 24.9156 26.2 24.7121 26.2 24.5V11.5C26.2 11.2878 26.2842 11.0843 26.4343 10.9343C26.5843 10.7842 26.7878 10.7 27 10.7C27.2121 10.7 27.4156 10.7842 27.5656 10.9343C27.7157 11.0843 27.7999 11.2878 27.7999 11.5V24.5C27.7999 24.7121 27.7157 24.9156 27.5656 25.0656C27.4156 25.2157 27.2121 25.3 27 25.3Z" fill="white"/>
</svg>
