<svg width="297" height="297" viewBox="0 0 297 297" fill="none" xmlns="http://www.w3.org/2000/svg">
<g clip-path="url(#clip0_287_26)">
<path d="M291.219 78.7529L153.176 9.73195C150.233 8.25895 146.767 8.25895 143.823 9.73195L5.781 78.7529C2.238 80.5249 0 84.1449 0 88.1069V277.915C0 283.69 4.682 288.373 10.458 288.373H44.969C50.744 288.373 55.427 283.691 55.427 277.915V115.82H241.575V277.915C241.575 283.69 246.257 288.373 252.033 288.373H286.544C292.319 288.373 297.002 283.691 297.002 277.915V88.1069C297 84.1449 294.762 80.5249 291.219 78.7529ZM276.085 267.457H262.49V105.362C262.49 99.5869 257.808 94.9039 252.032 94.9039H44.968C39.193 94.9039 34.51 99.5859 34.51 105.362V267.457H20.915V94.5699L148.5 30.7779L276.085 94.5699V267.457Z" fill="white"/>
<path d="M217.521 132.552H148.5C144.457 132.552 141.18 135.829 141.18 139.872V201.573H79.4789C75.4359 201.573 72.1589 204.85 72.1589 208.893V277.914C72.1589 281.957 75.4359 285.234 79.4789 285.234H217.521C221.564 285.234 224.841 281.957 224.841 277.914V139.873C224.842 135.829 221.564 132.552 217.521 132.552ZM155.82 226.568L172.657 243.405L155.82 260.242V226.568ZM141.18 260.241L124.343 243.404L141.18 226.567V260.241ZM166.174 216.214H199.847L183.01 233.051L166.174 216.214ZM166.174 201.573L183.011 184.736L199.848 201.573H166.174ZM210.201 191.22L193.365 174.383L210.201 157.546V191.22V191.22ZM183.011 164.03L166.174 147.193H199.847L183.011 164.03ZM172.657 174.383L155.82 191.22V157.547L172.657 174.383ZM113.989 233.051L97.1519 216.214H130.825L113.989 233.051ZM103.636 243.404L86.7989 260.241V226.568L103.636 243.404ZM113.989 253.758L130.826 270.595H97.1529L113.989 253.758ZM183.01 253.758L199.847 270.595H166.174L183.01 253.758ZM193.364 243.404L210.201 226.567V260.24L193.364 243.404Z" fill="white"/>
</g>
<defs>
<clipPath id="clip0_287_26">
<rect width="297" height="297" fill="white"/>
</clipPath>
</defs>
</svg>
