<svg width="21" height="21" viewBox="0 0 21 21" fill="none" xmlns="http://www.w3.org/2000/svg">
<path fill-rule="evenodd" clip-rule="evenodd" d="M11.4923 4.06698L16.4923 6.92412C17.1154 7.28021 17.5 7.9429 17.5 8.66061V13.3393C17.5 14.057 17.1154 14.7197 16.4923 15.0758L11.4923 17.9329C10.8774 18.2843 10.1226 18.2843 9.50772 17.9329L4.50772 15.0758C3.88457 14.7197 3.5 14.057 3.5 13.3393V8.66061C3.5 7.9429 3.88457 7.28021 4.50772 6.92412L9.50772 4.06698C10.1226 3.71563 10.8774 3.71563 11.4923 4.06698V4.06698Z" stroke="white" stroke-linecap="round" stroke-linejoin="round"/>
<path d="M14 9.5L7 5.5" stroke="white" stroke-linecap="round" stroke-linejoin="round"/>
<path d="M4 8L9.5518 10.9894C10.1438 11.3082 10.8562 11.3082 11.4482 10.9894L17 8" stroke="white" stroke-linecap="round" stroke-linejoin="round"/>
<path d="M10.5 11.5V18" stroke="white" stroke-linecap="round" stroke-linejoin="round"/>
</svg>
